<?xml version="1.0" encoding="UTF-8" standalone="no"?>
<svg
   version="1.0"
   width="1005.000000pt"
   height="248.000000pt"
   viewBox="0 0 1005.000000 248.000000"
   preserveAspectRatio="xMidYMid meet"
   id="svg8"
   sodipodi:docname="Screenshot_2024-12-26_at_02.15.37-removebg-preview.svg"
   inkscape:version="1.4 (e7c3feb1, 2024-10-09)"
   xmlns:inkscape="http://www.inkscape.org/namespaces/inkscape"
   xmlns:sodipodi="http://sodipodi.sourceforge.net/DTD/sodipodi-0.dtd"
   xmlns="http://www.w3.org/2000/svg"
   xmlns:svg="http://www.w3.org/2000/svg">
  <defs
     id="defs8" />
  <sodipodi:namedview
     id="namedview8"
     pagecolor="#ffffff"
     bordercolor="#000000"
     borderopacity="0.25"
     inkscape:showpageshadow="2"
     inkscape:pageopacity="0.0"
     inkscape:pagecheckerboard="0"
     inkscape:deskcolor="#d1d1d1"
     inkscape:document-units="pt"
     inkscape:zoom="0.69428414"
     inkscape:cx="643.82862"
     inkscape:cy="172.11973"
     inkscape:window-width="1512"
     inkscape:window-height="916"
     inkscape:window-x="0"
     inkscape:window-y="136"
     inkscape:window-maximized="1"
     inkscape:current-layer="g8" />
  <g
     transform="translate(0.000000,248.000000) scale(0.100000,-0.100000)"
     fill="#000000"
     stroke="none"
     id="g8">
    <path
       d="M685 2040 c-165 -3 -301 -7 -302 -8 -2 -1 -3 -53 -3 -115 0 -75 4 -117 12 -125 8 -8 66 -12 192 -12 183 0 253 -10 263 -36 3 -7 -12 -35 -35 -61 -21 -27 -47 -64 -57 -83 -10 -19 -21 -37 -25 -40 -4 -3 -19 -26 -33 -51 -24 -41 -27 -56 -27 -143 0 -54 4 -105 10 -115 8 -16 28 -20 126 -26 80 -5 130 -13 160 -27 l44 -19 0 -60 c0 -86 -8 -95 -88 -109 -100 -16 -307 0 -363 30 -72 37 -120 28 -134 -27 -3 -14 -17 -42 -31 -62 -13 -19 -24 -42 -24 -50 0 -8 -12 -32 -27 -54 -36 -52 -25 -87 32 -102 22 -5 55 -18 73 -28 18 -10 56 -21 85 -24 29 -3 63 -12 77 -21 19 -12 63 -17 195 -20 152 -3 177 -1 234 17 35 12 69 21 77 21 44 0 264 147 264 177 0 6 9 14 19 18 12 4 21 19 26 43 4 20 15 51 26 68 27 44 26 173 -1 229 -11 22 -19 46 -20 53 0 6 -8 20 -17 30 -10 9 -26 29 -35 44 -20 31 -86 80 -144 107 -49 23 -55 31 -56 72 -1 25 12 44 69 102 38 40 84 92 101 116 32 44 32 47 32 162 0 66 -4 120 -10 124 -14 9 -343 11 -685 5z"
       id="path1" />
    <path
       d="M1900 2042 c-254 -2 -286 -4 -297 -19 -14 -18 -16 -118 -5 -193 l7 -45 207 -5 c177 -4 210 -7 224 -22 15 -15 15 -21 4 -50 -7 -18 -22 -42 -32 -53 -10 -11 -41 -49 -68 -85 l-50 -65 0 -126 c0 -89 4 -130 13 -137 6 -5 62 -13 123 -17 63 -4 122 -13 135 -21 13 -7 34 -17 45 -23 47 -21 39 -85 -17 -136 -32 -29 -48 -35 -87 -37 -130 -4 -316 14 -327 33 -3 5 -29 15 -57 24 -59 17 -73 11 -82 -39 -4 -19 -13 -39 -20 -46 -8 -6 -18 -29 -21 -52 -4 -22 -18 -56 -31 -76 -40 -58 -31 -98 24 -108 21 -4 48 -15 61 -25 15 -12 40 -19 69 -19 29 0 57 -8 81 -22 33 -21 51 -23 201 -26 95 -2 182 1 205 7 22 5 69 17 103 26 35 9 101 37 147 64 108 61 169 132 197 229 26 90 33 158 20 185 -6 12 -16 47 -22 77 -8 44 -20 65 -59 108 -48 52 -118 103 -159 116 -26 9 -62 52 -62 76 0 10 49 67 110 129 83 85 111 119 116 146 9 48 1 202 -11 214 -12 12 -285 17 -685 13z"
       id="path2" />
    <path
       d="M6543 1983 c-10 -3 -13 -40 -13 -133 0 -122 -1 -130 -22 -144 -12 -9 -38 -16 -58 -16 -62 0 -65 -5 -69 -150 -4 -150 0 -160 63 -160 80 0 80 0 86 -244 6 -202 7 -217 28 -245 12 -17 22 -35 22 -40 0 -18 90 -100 143 -129 28 -17 71 -33 94 -37 24 -4 45 -11 48 -15 13 -22 116 -22 217 -1 174 37 178 40 140 116 -11 22 -30 73 -42 112 -13 40 -27 76 -34 81 -6 5 -36 10 -67 10 -55 1 -105 19 -120 44 -14 22 -11 324 4 336 6 5 56 12 109 14 53 1 100 7 105 11 4 5 9 66 11 136 4 163 6 161 -122 161 -63 0 -97 4 -103 13 -6 6 -13 64 -16 127 -3 63 -8 122 -12 131 -3 9 -20 20 -37 23 -36 7 -337 7 -355 -1z"
       id="path3" />
    <path
       d="M3463 1740 c-18 -4 -57 -17 -88 -30 -62 -25 -99 -23 -143 10 -26 19 -40 20 -197 18 l-169 -3 -8 -35 c-13 -56 -9 -981 3 -997 9 -10 58 -13 209 -13 171 0 199 2 204 16 3 9 6 138 6 288 l0 273 25 37 c14 20 25 41 25 46 0 19 41 29 144 36 129 8 127 6 127 155 0 102 -7 161 -23 192 -9 18 -56 21 -115 7z"
       id="path4" />
    <path
       d="m 4144,1740 c -28,-5 -64,-16 -80,-25 -16,-8 -37,-15 -47,-15 -9,0 -35,-11 -57,-25 -22,-14 -43,-25 -47,-25 -11,0 -163,-160 -163,-172 0,-6 -12,-36 -26,-66 -25,-54 -26,-58 -22,-232 2,-149 6,-181 20,-196 9,-11 19,-36 23,-56 4,-20 13,-39 20,-42 8,-3 19,-23 26,-45 7,-23 20,-48 31,-57 10,-10 18,-23 18,-31 0,-7 6,-16 14,-19 8,-3 21,-23 30,-44 8,-21 21,-42 28,-47 8,-4 21,-21 31,-36 23,-35 152,-167 165,-167 5,0 13,-9 18,-19 12,-26 155,-141 174,-141 21,1 48,18 99,65 90,82 121,114 121,124 0,5 9,13 20,16 11,3 25,16 31,28 14,26 18,30 74,92 26,28 53,64 62,80 9,17 19,32 23,35 5,4 47,69 87,135 82,135 105,256 85,448 -11,107 -13,112 -59,180 -82,120 -168,191 -286,233 -62,22 -93,26 -217,29 -80,2 -168,0 -196,-5 z m 292,-346 c 35,-37 44,-73 44,-174 0,-103 -12,-149 -46,-181 -23,-21 -34,-24 -117,-24 -124,0 -137,5 -169,64 -25,44 -28,59 -28,149 0,98 0,100 35,143 19,24 45,47 57,51 13,4 62,6 111,4 81,-3 89,-6 113,-32 z"
       id="path5"
       style="fill:#800000"
       sodipodi:nodetypes="scsssscccscccsscccscccsscccccccccscscscscccc" />
    <path
       d="M7742 1740 c-29 -6 -65 -16 -80 -24 -15 -7 -39 -16 -54 -20 -71 -17 -202 -140 -257 -242 -39 -73 -54 -188 -41 -321 7 -82 13 -101 51 -168 26 -45 64 -94 95 -122 54 -47 61 -52 135 -92 24 -13 51 -29 60 -37 8 -7 44 -18 80 -23 35 -5 91 -16 124 -25 68 -18 147 -21 176 -5 11 5 52 16 92 24 72 14 197 67 197 85 0 5 9 12 21 15 23 7 41 47 33 70 -3 8 -14 17 -25 20 -10 4 -19 13 -19 21 0 8 -11 20 -25 26 -14 6 -25 14 -25 18 0 15 -67 77 -89 83 -16 4 -48 -4 -90 -21 -55 -22 -81 -27 -156 -27 -85 0 -92 2 -136 32 -53 37 -68 76 -41 106 15 17 36 18 317 15 165 -2 318 -1 340 2 38 5 40 7 49 49 14 68 -8 248 -34 276 -11 12 -20 25 -20 30 0 10 -94 121 -125 147 -11 10 -29 20 -40 24 -11 3 -27 12 -35 19 -8 8 -46 25 -85 40 -60 23 -89 27 -205 30 -74 2 -159 0 -188 -5z m256 -274 c57 -30 96 -111 67 -140 -15 -14 -38 -16 -173 -14 l-157 3 1 46 c0 38 6 52 30 77 17 16 39 32 50 35 43 11 156 6 182 -7z"
       id="path6" />
    <path
       d="M8960 1744 c-55 -10 -166 -49 -185 -64 -11 -9 -33 -22 -49 -30 -56 -28 -135 -171 -135 -245 -1 -96 111 -257 188 -271 20 -4 52 -15 71 -24 24 -12 72 -20 150 -24 92 -5 124 -11 167 -32 46 -21 53 -28 53 -54 0 -40 -16 -43 -219 -38 -143 3 -172 6 -188 21 -21 18 -112 49 -123 42 -4 -3 -10 -22 -14 -43 -3 -22 -12 -45 -21 -52 -8 -6 -17 -28 -21 -49 -4 -20 -15 -47 -25 -60 -23 -28 -11 -57 29 -72 15 -6 45 -20 67 -30 92 -44 373 -70 489 -45 39 8 91 18 116 22 25 3 70 20 100 37 66 37 180 149 180 177 0 12 7 37 16 58 14 34 14 42 -1 97 -31 112 -58 152 -140 202 -45 28 -86 43 -115 43 -17 0 -48 9 -70 20 -28 14 -60 20 -112 21 -40 0 -91 3 -113 7 -37 7 -41 10 -49 49 -15 72 -8 75 173 71 140 -3 160 -5 194 -25 21 -13 53 -23 72 -23 32 0 35 3 41 38 6 35 53 159 82 213 1 4 -15 9 -36 13 -21 3 -61 15 -88 27 -43 20 -69 22 -254 25 -113 1 -216 1 -230 -2z"
       id="path7" />
    <path
       d="M5089 1723 c-18 -20 -26 -505 -10 -609 28 -194 54 -257 138 -334 68 -63 103 -81 203 -106 93 -23 101 -23 171 -10 78 15 143 39 154 56 10 17 74 11 103 -9 23 -17 51 -21 192 -26 109 -5 174 -3 193 4 l27 11 0 500 c0 327 -4 508 -10 521 -10 18 -23 19 -205 19 -191 0 -195 0 -207 -22 -9 -16 -15 -106 -19 -303 -4 -154 -10 -292 -14 -307 -4 -14 -24 -40 -45 -57 -33 -27 -47 -31 -97 -31 -58 0 -93 14 -120 48 -10 12 -13 86 -14 286 0 282 -7 362 -30 377 -8 5 -100 9 -205 9 -166 0 -193 -2 -205 -17z"
       id="path8" />
  </g>
</svg>
